<?xml version="1.0" encoding="utf-8" standalone="no"?>
<!DOCTYPE svg PUBLIC "-//W3C//DTD SVG 1.1//EN"
  "http://www.w3.org/Graphics/SVG/1.1/DTD/svg11.dtd">
<!-- Created with matplotlib (http://matplotlib.org/) -->
<svg height="276pt" version="1.1" viewBox="0 0 269 276" width="269pt" xmlns="http://www.w3.org/2000/svg" xmlns:xlink="http://www.w3.org/1999/xlink">
 <defs>
  <style type="text/css">
*{stroke-linecap:butt;stroke-linejoin:round;}
  </style>
 </defs>
 <g id="figure_1">
  <g id="patch_1">
   <path d="
M0 276.48
L269.859 276.48
L269.859 0
L0 0
z
" style="fill:#ffffff;"/>
  </g>
  <g id="axes_1">
   <g id="patch_2">
    <path d="
M7.2 269.28
L262.659 269.28
L262.659 7.2
L7.2 7.2
z
" style="fill:#ffffff;"/>
   </g>
   <g id="patch_3">
    <path clip-path="url(#pb8d949032b)" d="
M129.416 21.79
Q85.4585 47.1687 43.4378 71.4293" style="fill:none;stroke:#000000;stroke-linecap:round;stroke-width:2.0;"/>
    <path clip-path="url(#pb8d949032b)" d="
M54.598 70.7595
L43.4378 71.4293
L49.598 62.0992
L54.598 70.7595
z
" style="stroke:#000000;stroke-linecap:round;stroke-width:2.0;"/>
   </g>
   <g id="patch_4">
    <path clip-path="url(#pb8d949032b)" d="
M26.195 136.038
Q106.367 182.326 184.603 227.495" style="fill:none;stroke:#000000;stroke-linecap:round;stroke-width:2.0;"/>
    <path clip-path="url(#pb8d949032b)" d="
M178.443 218.165
L184.603 227.495
L173.443 226.825
L178.443 218.165
z
" style="stroke:#000000;stroke-linecap:round;stroke-width:2.0;"/>
   </g>
   <g id="patch_5">
    <path clip-path="url(#pb8d949032b)" d="
M80.9886 39.4267
Q134.929 132.855 187.752 224.346" style="fill:none;stroke:#000000;stroke-linecap:round;stroke-width:2.0;"/>
    <path clip-path="url(#pb8d949032b)" d="
M187.082 213.186
L187.752 224.346
L178.422 218.186
L187.082 213.186
z
" style="stroke:#000000;stroke-linecap:round;stroke-width:2.0;"/>
   </g>
   <g id="patch_6">
    <path clip-path="url(#pb8d949032b)" d="
M26.195 129.671
Q106.367 83.3839 184.603 38.2144" style="fill:none;stroke:#000000;stroke-linecap:round;stroke-width:2.0;"/>
    <path clip-path="url(#pb8d949032b)" d="
M173.443 38.8842
L184.603 38.2144
L178.443 47.5445
L173.443 38.8842
z
" style="stroke:#000000;stroke-linecap:round;stroke-width:2.0;"/>
   </g>
   <g id="patch_7">
    <path clip-path="url(#pb8d949032b)" d="
M133.282 24.7564
Q106.367 125.202 80.0319 223.487" style="fill:none;stroke:#000000;stroke-linecap:round;stroke-width:2.0;"/>
    <path clip-path="url(#pb8d949032b)" d="
M87.4497 215.122
L80.0319 223.487
L77.7904 212.533
L87.4497 215.122
z
" style="stroke:#000000;stroke-linecap:round;stroke-width:2.0;"/>
   </g>
   <g id="patch_8">
    <path clip-path="url(#pb8d949032b)" d="
M84.172 33.913
Q134.929 33.913 183.451 33.913" style="fill:none;stroke:#000000;stroke-linecap:round;stroke-width:2.0;"/>
    <path clip-path="url(#pb8d949032b)" d="
M173.451 28.913
L183.451 33.913
L173.451 38.913
L173.451 28.913
z
" style="stroke:#000000;stroke-linecap:round;stroke-width:2.0;"/>
   </g>
   <g id="patch_9">
    <path clip-path="url(#pb8d949032b)" d="
M80.9886 226.283
Q134.929 132.855 187.752 41.3632" style="fill:none;stroke:#000000;stroke-linecap:round;stroke-width:2.0;"/>
    <path clip-path="url(#pb8d949032b)" d="
M178.422 47.5234
L187.752 41.3632
L187.082 52.5234
L178.422 47.5234
z
" style="stroke:#000000;stroke-linecap:round;stroke-width:2.0;"/>
   </g>
   <g id="patch_10">
    <path clip-path="url(#pb8d949032b)" d="
M140.443 21.79
Q184.4 47.1687 226.421 71.4293" style="fill:none;stroke:#000000;stroke-linecap:round;stroke-width:2.0;"/>
    <path clip-path="url(#pb8d949032b)" d="
M220.261 62.0992
L226.421 71.4293
L215.261 70.7595
L220.261 62.0992
z
" style="stroke:#000000;stroke-linecap:round;stroke-width:2.0;"/>
   </g>
   <g id="patch_11">
    <path clip-path="url(#pb8d949032b)" d="
M128.78 20.2545
Q106.367 26.2598 86.1149 31.6865" style="fill:none;stroke:#000000;stroke-linecap:round;stroke-width:2.0;"/>
    <path clip-path="url(#pb8d949032b)" d="
M97.0683 33.9279
L86.1149 31.6865
L94.4801 24.2686
L97.0683 33.9279
z
" style="stroke:#000000;stroke-linecap:round;stroke-width:2.0;"/>
   </g>
   <g id="patch_12">
    <path clip-path="url(#pb8d949032b)" d="
M131.746 24.1204
Q85.4585 104.293 40.289 182.529" style="fill:none;stroke:#000000;stroke-linecap:round;stroke-width:2.0;"/>
    <path clip-path="url(#pb8d949032b)" d="
M49.6191 176.368
L40.289 182.529
L40.9588 171.368
L49.6191 176.368
z
" style="stroke:#000000;stroke-linecap:round;stroke-width:2.0;"/>
   </g>
   <g id="patch_13">
    <path clip-path="url(#pb8d949032b)" d="
M37.6354 81.8804
Q56.8965 153.764 75.5788 223.487" style="fill:none;stroke:#000000;stroke-linecap:round;stroke-width:2.0;"/>
    <path clip-path="url(#pb8d949032b)" d="
M77.8202 212.533
L75.5788 223.487
L68.1609 215.122
L77.8202 212.533
z
" style="stroke:#000000;stroke-linecap:round;stroke-width:2.0;"/>
   </g>
   <g id="patch_14">
    <path clip-path="url(#pb8d949032b)" d="
M139.431 23.1086
Q192.053 75.7307 243.094 126.772" style="fill:none;stroke:#000000;stroke-linecap:round;stroke-width:2.0;"/>
    <path clip-path="url(#pb8d949032b)" d="
M239.559 116.165
L243.094 126.772
L232.488 123.236
L239.559 116.165
z
" style="stroke:#000000;stroke-linecap:round;stroke-width:2.0;"/>
   </g>
   <g id="patch_15">
    <path clip-path="url(#pb8d949032b)" d="
M77.8053 40.2797
Q77.8053 132.855 77.8053 223.194" style="fill:none;stroke:#000000;stroke-linecap:round;stroke-width:2.0;"/>
    <path clip-path="url(#pb8d949032b)" d="
M82.8053 213.194
L77.8053 223.194
L72.8053 213.194
L82.8053 213.194
z
" style="stroke:#000000;stroke-linecap:round;stroke-width:2.0;"/>
   </g>
   <g id="patch_16">
    <path clip-path="url(#pb8d949032b)" d="
M130.427 23.1086
Q77.8053 75.7307 26.7643 126.772" style="fill:none;stroke:#000000;stroke-linecap:round;stroke-width:2.0;"/>
    <path clip-path="url(#pb8d949032b)" d="
M37.3709 123.236
L26.7643 126.772
L30.2999 116.165
L37.3709 123.236
z
" style="stroke:#000000;stroke-linecap:round;stroke-width:2.0;"/>
   </g>
   <g id="patch_17">
    <path clip-path="url(#pb8d949032b)" d="
M83.319 37.0963
Q163.491 83.3839 241.727 128.553" style="fill:none;stroke:#000000;stroke-linecap:round;stroke-width:2.0;"/>
    <path clip-path="url(#pb8d949032b)" d="
M235.567 119.223
L241.727 128.553
L230.567 127.883
L235.567 119.223
z
" style="stroke:#000000;stroke-linecap:round;stroke-width:2.0;"/>
   </g>
   <g id="patch_18">
    <path clip-path="url(#pb8d949032b)" d="
M41.5013 78.914
Q134.929 132.855 226.421 185.677" style="fill:none;stroke:#000000;stroke-linecap:round;stroke-width:2.0;"/>
    <path clip-path="url(#pb8d949032b)" d="
M220.261 176.347
L226.421 185.677
L215.261 185.008
L220.261 176.347
z
" style="stroke:#000000;stroke-linecap:round;stroke-width:2.0;"/>
   </g>
   <g id="patch_19">
    <path clip-path="url(#pb8d949032b)" d="
M138.113 24.1204
Q184.4 104.293 229.57 182.529" style="fill:none;stroke:#000000;stroke-linecap:round;stroke-width:2.0;"/>
    <path clip-path="url(#pb8d949032b)" d="
M228.9 171.368
L229.57 182.529
L220.24 176.368
L228.9 171.368
z
" style="stroke:#000000;stroke-linecap:round;stroke-width:2.0;"/>
   </g>
   <g id="patch_20">
    <path clip-path="url(#pb8d949032b)" d="
M42.1373 188.331
Q142.583 161.417 240.868 135.081" style="fill:none;stroke:#000000;stroke-linecap:round;stroke-width:2.0;"/>
    <path clip-path="url(#pb8d949032b)" d="
M229.914 132.84
L240.868 135.081
L232.503 142.499
L229.914 132.84
z
" style="stroke:#000000;stroke-linecap:round;stroke-width:2.0;"/>
   </g>
   <g id="patch_21">
    <path clip-path="url(#pb8d949032b)" d="
M42.1373 74.0829
Q114.02 54.8218 183.744 36.1396" style="fill:none;stroke:#000000;stroke-linecap:round;stroke-width:2.0;"/>
    <path clip-path="url(#pb8d949032b)" d="
M172.79 33.8981
L183.744 36.1396
L175.379 43.5574
L172.79 33.8981
z
" style="stroke:#000000;stroke-linecap:round;stroke-width:2.0;"/>
   </g>
   <g id="patch_22">
    <path clip-path="url(#pb8d949032b)" d="
M141.079 20.2545
Q163.491 26.2598 183.744 31.6865" style="fill:none;stroke:#000000;stroke-linecap:round;stroke-width:2.0;"/>
    <path clip-path="url(#pb8d949032b)" d="
M175.379 24.2686
L183.744 31.6865
L172.79 33.9279
L175.379 24.2686
z
" style="stroke:#000000;stroke-linecap:round;stroke-width:2.0;"/>
   </g>
   <g id="patch_23">
    <path clip-path="url(#pb8d949032b)" d="
M136.577 24.7564
Q163.491 125.202 189.827 223.487" style="fill:none;stroke:#000000;stroke-linecap:round;stroke-width:2.0;"/>
    <path clip-path="url(#pb8d949032b)" d="
M192.068 212.533
L189.827 223.487
L182.409 215.122
L192.068 212.533
z
" style="stroke:#000000;stroke-linecap:round;stroke-width:2.0;"/>
   </g>
   <g id="patch_24">
    <path clip-path="url(#pb8d949032b)" d="
M134.929 24.9733
Q134.929 132.855 134.929 238.5" style="fill:none;stroke:#000000;stroke-linecap:round;stroke-width:2.0;"/>
    <path clip-path="url(#pb8d949032b)" d="
M139.929 228.5
L134.929 238.5
L129.929 228.5
L139.929 228.5
z
" style="stroke:#000000;stroke-linecap:round;stroke-width:2.0;"/>
   </g>
   <g id="patch_25">
    <path clip-path="url(#pb8d949032b)" d="
M74.622 39.4267
Q49.2433 83.3839 24.9826 125.405" style="fill:none;stroke:#000000;stroke-linecap:round;stroke-width:2.0;"/>
    <path clip-path="url(#pb8d949032b)" d="
M34.3128 119.244
L24.9826 125.405
L25.6525 114.244
L34.3128 119.244
z
" style="stroke:#000000;stroke-linecap:round;stroke-width:2.0;"/>
   </g>
   <g id="matplotlib.axis_1"/>
   <g id="matplotlib.axis_2"/>
   <g id="patch_26">
    <path clip-path="url(#pb8d949032b)" d="
M233.871 92.8679
C236.143 92.8679 238.323 91.9651 239.93 90.3582
C241.537 88.7514 242.44 86.5717 242.44 84.2993
C242.44 82.0269 241.537 79.8472 239.93 78.2404
C238.323 76.6335 236.143 75.7307 233.871 75.7307
C231.599 75.7307 229.419 76.6335 227.812 78.2404
C226.205 79.8472 225.302 82.0269 225.302 84.2993
C225.302 86.5717 226.205 88.7514 227.812 90.3582
C229.419 91.9651 231.599 92.8679 233.871 92.8679
z
" style="fill:none;stroke:#000000;"/>
   </g>
   <g id="patch_27">
    <path clip-path="url(#pb8d949032b)" d="
M192.053 51.0502
C194.326 51.0502 196.505 50.1474 198.112 48.5405
C199.719 46.9337 200.622 44.754 200.622 42.4816
C200.622 40.2092 199.719 38.0295 198.112 36.4227
C196.505 34.8158 194.326 33.913 192.053 33.913
C189.781 33.913 187.601 34.8158 185.994 36.4227
C184.388 38.0295 183.485 40.2092 183.485 42.4816
C183.485 44.754 184.388 46.9337 185.994 48.5405
C187.601 50.1474 189.781 51.0502 192.053 51.0502
z
" style="fill:none;stroke:#000000;"/>
   </g>
   <g id="patch_28">
    <path clip-path="url(#pb8d949032b)" d="
M134.929 264.24
C137.202 264.24 139.381 263.337 140.988 261.73
C142.595 260.123 143.498 257.944 143.498 255.671
C143.498 253.399 142.595 251.219 140.988 249.612
C139.381 248.006 137.202 247.103 134.929 247.103
C132.657 247.103 130.477 248.006 128.87 249.612
C127.264 251.219 126.361 253.399 126.361 255.671
C126.361 257.944 127.264 260.123 128.87 261.73
C130.477 263.337 132.657 264.24 134.929 264.24
z
" style="fill:none;stroke:#000000;"/>
   </g>
   <g id="patch_29">
    <path clip-path="url(#pb8d949032b)" d="
M35.9876 92.8679
C38.26 92.8679 40.4397 91.9651 42.0465 90.3582
C43.6534 88.7514 44.5562 86.5717 44.5562 84.2993
C44.5562 82.0269 43.6534 79.8472 42.0465 78.2404
C40.4397 76.6335 38.26 75.7307 35.9876 75.7307
C33.7152 75.7307 31.5355 76.6335 29.9287 78.2404
C28.3218 79.8472 27.419 82.0269 27.419 84.2993
C27.419 86.5717 28.3218 88.7514 29.9287 90.3582
C31.5355 91.9651 33.7152 92.8679 35.9876 92.8679
z
" style="fill:none;stroke:#000000;"/>
   </g>
   <g id="patch_30">
    <path clip-path="url(#pb8d949032b)" d="
M20.6813 149.992
C22.9537 149.992 25.1333 149.089 26.7402 147.482
C28.347 145.875 29.2499 143.696 29.2499 141.423
C29.2499 139.151 28.347 136.971 26.7402 135.364
C25.1333 133.758 22.9537 132.855 20.6813 132.855
C18.4089 132.855 16.2292 133.758 14.6224 135.364
C13.0155 136.971 12.1127 139.151 12.1127 141.423
C12.1127 143.696 13.0155 145.875 14.6224 147.482
C16.2292 149.089 18.4089 149.992 20.6813 149.992
z
" style="fill:none;stroke:#000000;"/>
   </g>
   <g id="patch_31">
    <path clip-path="url(#pb8d949032b)" d="
M77.8053 51.0502
C80.0777 51.0502 82.2574 50.1474 83.8642 48.5405
C85.4711 46.9337 86.3739 44.754 86.3739 42.4816
C86.3739 40.2092 85.4711 38.0295 83.8642 36.4227
C82.2574 34.8158 80.0777 33.913 77.8053 33.913
C75.5329 33.913 73.3532 34.8158 71.7464 36.4227
C70.1395 38.0295 69.2367 40.2092 69.2367 42.4816
C69.2367 44.754 70.1395 46.9337 71.7464 48.5405
C73.3532 50.1474 75.5329 51.0502 77.8053 51.0502
z
" style="fill:none;stroke:#000000;"/>
   </g>
   <g id="patch_32">
    <path clip-path="url(#pb8d949032b)" d="
M134.929 35.7439
C137.202 35.7439 139.381 34.841 140.988 33.2342
C142.595 31.6273 143.498 29.4477 143.498 27.1753
C143.498 24.9028 142.595 22.7232 140.988 21.1164
C139.381 19.5095 137.202 18.6067 134.929 18.6067
C132.657 18.6067 130.477 19.5095 128.87 21.1164
C127.264 22.7232 126.361 24.9028 126.361 27.1753
C126.361 29.4477 127.264 31.6273 128.87 33.2342
C130.477 34.841 132.657 35.7439 134.929 35.7439
z
" style="fill:none;stroke:#000000;"/>
   </g>
   <g id="patch_33">
    <path clip-path="url(#pb8d949032b)" d="
M77.8053 248.934
C80.0777 248.934 82.2574 248.031 83.8642 246.424
C85.4711 244.817 86.3739 242.637 86.3739 240.365
C86.3739 238.093 85.4711 235.913 83.8642 234.306
C82.2574 232.699 80.0777 231.796 77.8053 231.796
C75.5329 231.796 73.3532 232.699 71.7464 234.306
C70.1395 235.913 69.2367 238.093 69.2367 240.365
C69.2367 242.637 70.1395 244.817 71.7464 246.424
C73.3532 248.031 75.5329 248.934 77.8053 248.934
z
" style="fill:none;stroke:#000000;"/>
   </g>
   <g id="patch_34">
    <path clip-path="url(#pb8d949032b)" d="
M35.9876 207.116
C38.26 207.116 40.4397 206.213 42.0465 204.606
C43.6534 202.999 44.5562 200.82 44.5562 198.547
C44.5562 196.275 43.6534 194.095 42.0465 192.488
C40.4397 190.882 38.26 189.979 35.9876 189.979
C33.7152 189.979 31.5355 190.882 29.9287 192.488
C28.3218 194.095 27.419 196.275 27.419 198.547
C27.419 200.82 28.3218 202.999 29.9287 204.606
C31.5355 206.213 33.7152 207.116 35.9876 207.116
z
" style="fill:none;stroke:#000000;"/>
   </g>
   <g id="patch_35">
    <path clip-path="url(#pb8d949032b)" d="
M249.177 149.992
C251.45 149.992 253.629 149.089 255.236 147.482
C256.843 145.875 257.746 143.696 257.746 141.423
C257.746 139.151 256.843 136.971 255.236 135.364
C253.629 133.758 251.45 132.855 249.177 132.855
C246.905 132.855 244.725 133.758 243.118 135.364
C241.512 136.971 240.609 139.151 240.609 141.423
C240.609 143.696 241.512 145.875 243.118 147.482
C244.725 149.089 246.905 149.992 249.177 149.992
z
" style="fill:none;stroke:#000000;"/>
   </g>
   <g id="patch_36">
    <path clip-path="url(#pb8d949032b)" d="
M233.871 207.116
C236.143 207.116 238.323 206.213 239.93 204.606
C241.537 202.999 242.44 200.82 242.44 198.547
C242.44 196.275 241.537 194.095 239.93 192.488
C238.323 190.882 236.143 189.979 233.871 189.979
C231.599 189.979 229.419 190.882 227.812 192.488
C226.205 194.095 225.302 196.275 225.302 198.547
C225.302 200.82 226.205 202.999 227.812 204.606
C229.419 206.213 231.599 207.116 233.871 207.116
z
" style="fill:none;stroke:#000000;"/>
   </g>
   <g id="patch_37">
    <path clip-path="url(#pb8d949032b)" d="
M192.053 248.934
C194.326 248.934 196.505 248.031 198.112 246.424
C199.719 244.817 200.622 242.637 200.622 240.365
C200.622 238.093 199.719 235.913 198.112 234.306
C196.505 232.699 194.326 231.796 192.053 231.796
C189.781 231.796 187.601 232.699 185.994 234.306
C184.388 235.913 183.485 238.093 183.485 240.365
C183.485 242.637 184.388 244.817 185.994 246.424
C187.601 248.031 189.781 248.934 192.053 248.934
z
" style="fill:none;stroke:#000000;"/>
   </g>
   <g id="patch_38">
    <path d="
M134.929 24.9733
C136.618 24.9733 138.237 24.3025 139.431 23.1086
C140.625 21.9147 141.296 20.2951 141.296 18.6067
C141.296 16.9182 140.625 15.2987 139.431 14.1048
C138.237 12.9108 136.618 12.24 134.929 12.24
C133.241 12.24 131.621 12.9108 130.427 14.1048
C129.234 15.2987 128.563 16.9182 128.563 18.6067
C128.563 20.2951 129.234 21.9147 130.427 23.1086
C131.621 24.3025 133.241 24.9733 134.929 24.9733
z
" style="fill:#fec7b8;stroke:#000000;"/>
   </g>
   <g id="patch_39">
    <path d="
M77.8053 40.2797
C79.4938 40.2797 81.1133 39.6088 82.3072 38.4149
C83.5011 37.221 84.172 35.6015 84.172 33.913
C84.172 32.2245 83.5011 30.605 82.3072 29.4111
C81.1133 28.2172 79.4938 27.5463 77.8053 27.5463
C76.1168 27.5463 74.4973 28.2172 73.3034 29.4111
C72.1095 30.605 71.4386 32.2245 71.4386 33.913
C71.4386 35.6015 72.1095 37.221 73.3034 38.4149
C74.4973 39.6088 76.1168 40.2797 77.8053 40.2797
z
" style="fill:#fec7b8;stroke:#000000;"/>
   </g>
   <g id="patch_40">
    <path d="
M35.9876 82.0974
C37.6761 82.0974 39.2956 81.4265 40.4895 80.2326
C41.6834 79.0387 42.3543 77.4192 42.3543 75.7307
C42.3543 74.0422 41.6834 72.4227 40.4895 71.2288
C39.2956 70.0349 37.6761 69.364 35.9876 69.364
C34.2992 69.364 32.6796 70.0349 31.4857 71.2288
C30.2918 72.4227 29.6209 74.0422 29.6209 75.7307
C29.6209 77.4192 30.2918 79.0387 31.4857 80.2326
C32.6796 81.4265 34.2992 82.0974 35.9876 82.0974
z
" style="fill:#fec7b8;stroke:#000000;"/>
   </g>
   <g id="patch_41">
    <path d="
M20.6813 139.221
C22.3697 139.221 23.9893 138.551 25.1832 137.357
C26.3771 136.163 27.0479 134.543 27.0479 132.855
C27.0479 131.166 26.3771 129.547 25.1832 128.353
C23.9893 127.159 22.3697 126.488 20.6813 126.488
C18.9928 126.488 17.3733 127.159 16.1794 128.353
C14.9854 129.547 14.3146 131.166 14.3146 132.855
C14.3146 134.543 14.9854 136.163 16.1794 137.357
C17.3733 138.551 18.9928 139.221 20.6813 139.221
z
" style="fill:#fec7b8;stroke:#000000;"/>
   </g>
   <g id="patch_42">
    <path d="
M35.9876 196.345
C37.6761 196.345 39.2956 195.675 40.4895 194.481
C41.6834 193.287 42.3543 191.667 42.3543 189.979
C42.3543 188.29 41.6834 186.671 40.4895 185.477
C39.2956 184.283 37.6761 183.612 35.9876 183.612
C34.2992 183.612 32.6796 184.283 31.4857 185.477
C30.2918 186.671 29.6209 188.29 29.6209 189.979
C29.6209 191.667 30.2918 193.287 31.4857 194.481
C32.6796 195.675 34.2992 196.345 35.9876 196.345
z
" style="fill:#fec7b8;stroke:#000000;"/>
   </g>
   <g id="patch_43">
    <path d="
M77.8053 238.163
C79.4938 238.163 81.1133 237.492 82.3072 236.298
C83.5011 235.104 84.172 233.485 84.172 231.796
C84.172 230.108 83.5011 228.488 82.3072 227.295
C81.1133 226.101 79.4938 225.43 77.8053 225.43
C76.1168 225.43 74.4973 226.101 73.3034 227.295
C72.1095 228.488 71.4386 230.108 71.4386 231.796
C71.4386 233.485 72.1095 235.104 73.3034 236.298
C74.4973 237.492 76.1168 238.163 77.8053 238.163
z
" style="fill:#fec7b8;stroke:#000000;"/>
   </g>
   <g id="patch_44">
    <path d="
M134.929 253.469
C136.618 253.469 138.237 252.799 139.431 251.605
C140.625 250.411 141.296 248.791 141.296 247.103
C141.296 245.414 140.625 243.795 139.431 242.601
C138.237 241.407 136.618 240.736 134.929 240.736
C133.241 240.736 131.621 241.407 130.427 242.601
C129.234 243.795 128.563 245.414 128.563 247.103
C128.563 248.791 129.234 250.411 130.427 251.605
C131.621 252.799 133.241 253.469 134.929 253.469
z
" style="fill:#fec7b8;stroke:#000000;"/>
   </g>
   <g id="patch_45">
    <path d="
M192.053 238.163
C193.742 238.163 195.361 237.492 196.555 236.298
C197.749 235.104 198.42 233.485 198.42 231.796
C198.42 230.108 197.749 228.488 196.555 227.295
C195.361 226.101 193.742 225.43 192.053 225.43
C190.365 225.43 188.745 226.101 187.551 227.295
C186.358 228.488 185.687 230.108 185.687 231.796
C185.687 233.485 186.358 235.104 187.551 236.298
C188.745 237.492 190.365 238.163 192.053 238.163
z
" style="fill:#fec7b8;stroke:#000000;"/>
   </g>
   <g id="patch_46">
    <path d="
M233.871 196.345
C235.56 196.345 237.179 195.675 238.373 194.481
C239.567 193.287 240.238 191.667 240.238 189.979
C240.238 188.29 239.567 186.671 238.373 185.477
C237.179 184.283 235.56 183.612 233.871 183.612
C232.183 183.612 230.563 184.283 229.369 185.477
C228.175 186.671 227.504 188.29 227.504 189.979
C227.504 191.667 228.175 193.287 229.369 194.481
C230.563 195.675 232.183 196.345 233.871 196.345
z
" style="fill:#fec7b8;stroke:#000000;"/>
   </g>
   <g id="patch_47">
    <path d="
M249.177 139.221
C250.866 139.221 252.485 138.551 253.679 137.357
C254.873 136.163 255.544 134.543 255.544 132.855
C255.544 131.166 254.873 129.547 253.679 128.353
C252.485 127.159 250.866 126.488 249.177 126.488
C247.489 126.488 245.869 127.159 244.675 128.353
C243.482 129.547 242.811 131.166 242.811 132.855
C242.811 134.543 243.482 136.163 244.675 137.357
C245.869 138.551 247.489 139.221 249.177 139.221
z
" style="fill:#fec7b8;stroke:#000000;"/>
   </g>
   <g id="patch_48">
    <path d="
M233.871 82.0974
C235.56 82.0974 237.179 81.4265 238.373 80.2326
C239.567 79.0387 240.238 77.4192 240.238 75.7307
C240.238 74.0422 239.567 72.4227 238.373 71.2288
C237.179 70.0349 235.56 69.364 233.871 69.364
C232.183 69.364 230.563 70.0349 229.369 71.2288
C228.175 72.4227 227.504 74.0422 227.504 75.7307
C227.504 77.4192 228.175 79.0387 229.369 80.2326
C230.563 81.4265 232.183 82.0974 233.871 82.0974
z
" style="fill:#fec7b8;stroke:#000000;"/>
   </g>
   <g id="patch_49">
    <path d="
M192.053 40.2797
C193.742 40.2797 195.361 39.6088 196.555 38.4149
C197.749 37.221 198.42 35.6015 198.42 33.913
C198.42 32.2245 197.749 30.605 196.555 29.4111
C195.361 28.2172 193.742 27.5463 192.053 27.5463
C190.365 27.5463 188.745 28.2172 187.551 29.4111
C186.358 30.605 185.687 32.2245 185.687 33.913
C185.687 35.6015 186.358 37.221 187.551 38.4149
C188.745 39.6088 190.365 40.2797 192.053 40.2797
z
" style="fill:#fec7b8;stroke:#000000;"/>
   </g>
   <g id="text_1">
    <!-- 1 -->
    <defs>
     <path d="
M12.4062 8.29688
L28.5156 8.29688
L28.5156 63.9219
L10.9844 60.4062
L10.9844 69.3906
L28.4219 72.9062
L38.2812 72.9062
L38.2812 8.29688
L54.3906 8.29688
L54.3906 0
L12.4062 0
z
" id="BitstreamVeraSans-Roman-31"/>
    </defs>
    <g transform="translate(132.759021871 21.3660396707)scale(0.1 -0.1)">
     <use xlink:href="#BitstreamVeraSans-Roman-31"/>
    </g>
   </g>
   <g id="text_2">
    <!-- 2 -->
    <defs>
     <path d="
M19.1875 8.29688
L53.6094 8.29688
L53.6094 0
L7.32812 0
L7.32812 8.29688
Q12.9375 14.1094 22.625 23.8906
Q32.3281 33.6875 34.8125 36.5312
Q39.5469 41.8438 41.4219 45.5312
Q43.3125 49.2188 43.3125 52.7812
Q43.3125 58.5938 39.2344 62.25
Q35.1562 65.9219 28.6094 65.9219
Q23.9688 65.9219 18.8125 64.3125
Q13.6719 62.7031 7.8125 59.4219
L7.8125 69.3906
Q13.7656 71.7812 18.9375 73
Q24.125 74.2188 28.4219 74.2188
Q39.75 74.2188 46.4844 68.5469
Q53.2188 62.8906 53.2188 53.4219
Q53.2188 48.9219 51.5312 44.8906
Q49.8594 40.875 45.4062 35.4062
Q44.1875 33.9844 37.6406 27.2188
Q31.1094 20.4531 19.1875 8.29688" id="BitstreamVeraSans-Roman-32"/>
    </defs>
    <g transform="translate(75.4912403993 36.672377772)scale(0.1 -0.1)">
     <use xlink:href="#BitstreamVeraSans-Roman-32"/>
    </g>
   </g>
   <g id="text_3">
    <!-- 3 -->
    <defs>
     <path d="
M40.5781 39.3125
Q47.6562 37.7969 51.625 33
Q55.6094 28.2188 55.6094 21.1875
Q55.6094 10.4062 48.1875 4.48438
Q40.7656 -1.42188 27.0938 -1.42188
Q22.5156 -1.42188 17.6562 -0.515625
Q12.7969 0.390625 7.625 2.20312
L7.625 11.7188
Q11.7188 9.32812 16.5938 8.10938
Q21.4844 6.89062 26.8125 6.89062
Q36.0781 6.89062 40.9375 10.5469
Q45.7969 14.2031 45.7969 21.1875
Q45.7969 27.6406 41.2812 31.2656
Q36.7656 34.9062 28.7188 34.9062
L20.2188 34.9062
L20.2188 43.0156
L29.1094 43.0156
Q36.375 43.0156 40.2344 45.9219
Q44.0938 48.8281 44.0938 54.2969
Q44.0938 59.9062 40.1094 62.9062
Q36.1406 65.9219 28.7188 65.9219
Q24.6562 65.9219 20.0156 65.0312
Q15.375 64.1562 9.8125 62.3125
L9.8125 71.0938
Q15.4375 72.6562 20.3438 73.4375
Q25.25 74.2188 29.5938 74.2188
Q40.8281 74.2188 47.3594 69.1094
Q53.9062 64.0156 53.9062 55.3281
Q53.9062 49.2656 50.4375 45.0938
Q46.9688 40.9219 40.5781 39.3125" id="BitstreamVeraSans-Roman-33"/>
    </defs>
    <g transform="translate(33.5883907787 78.4900711426)scale(0.1 -0.1)">
     <use xlink:href="#BitstreamVeraSans-Roman-33"/>
    </g>
   </g>
   <g id="text_4">
    <!-- 4 -->
    <defs>
     <path d="
M37.7969 64.3125
L12.8906 25.3906
L37.7969 25.3906
z

M35.2031 72.9062
L47.6094 72.9062
L47.6094 25.3906
L58.0156 25.3906
L58.0156 17.1875
L47.6094 17.1875
L47.6094 0
L37.7969 0
L37.7969 17.1875
L4.89062 17.1875
L4.89062 26.7031
z
" id="BitstreamVeraSans-Roman-34"/>
    </defs>
    <g transform="translate(18.0250214274 135.614102615)scale(0.1 -0.1)">
     <use xlink:href="#BitstreamVeraSans-Roman-34"/>
    </g>
   </g>
   <g id="text_5">
    <!-- 5 -->
    <defs>
     <path d="
M10.7969 72.9062
L49.5156 72.9062
L49.5156 64.5938
L19.8281 64.5938
L19.8281 46.7344
Q21.9688 47.4688 24.1094 47.8281
Q26.2656 48.1875 28.4219 48.1875
Q40.625 48.1875 47.75 41.5
Q54.8906 34.8125 54.8906 23.3906
Q54.8906 11.625 47.5625 5.09375
Q40.2344 -1.42188 26.9062 -1.42188
Q22.3125 -1.42188 17.5469 -0.640625
Q12.7969 0.140625 7.71875 1.70312
L7.71875 11.625
Q12.1094 9.23438 16.7969 8.0625
Q21.4844 6.89062 26.7031 6.89062
Q35.1562 6.89062 40.0781 11.3281
Q45.0156 15.7656 45.0156 23.3906
Q45.0156 31 40.0781 35.4375
Q35.1562 39.8906 26.7031 39.8906
Q22.75 39.8906 18.8125 39.0156
Q14.8906 38.1406 10.7969 36.2812
z
" id="BitstreamVeraSans-Roman-35"/>
    </defs>
    <g transform="translate(33.6290157787 192.738134086)scale(0.1 -0.1)">
     <use xlink:href="#BitstreamVeraSans-Roman-35"/>
    </g>
   </g>
   <g id="text_6">
    <!-- 6 -->
    <defs>
     <path d="
M33.0156 40.375
Q26.375 40.375 22.4844 35.8281
Q18.6094 31.2969 18.6094 23.3906
Q18.6094 15.5312 22.4844 10.9531
Q26.375 6.39062 33.0156 6.39062
Q39.6562 6.39062 43.5312 10.9531
Q47.4062 15.5312 47.4062 23.3906
Q47.4062 31.2969 43.5312 35.8281
Q39.6562 40.375 33.0156 40.375
M52.5938 71.2969
L52.5938 62.3125
Q48.875 64.0625 45.0938 64.9844
Q41.3125 65.9219 37.5938 65.9219
Q27.8281 65.9219 22.6719 59.3281
Q17.5312 52.7344 16.7969 39.4062
Q19.6719 43.6562 24.0156 45.9219
Q28.375 48.1875 33.5938 48.1875
Q44.5781 48.1875 50.9531 41.5156
Q57.3281 34.8594 57.3281 23.3906
Q57.3281 12.1562 50.6875 5.35938
Q44.0469 -1.42188 33.0156 -1.42188
Q20.3594 -1.42188 13.6719 8.26562
Q6.98438 17.9688 6.98438 36.375
Q6.98438 53.6562 15.1875 63.9375
Q23.3906 74.2188 37.2031 74.2188
Q40.9219 74.2188 44.7031 73.4844
Q48.4844 72.75 52.5938 71.2969" id="BitstreamVeraSans-Roman-36"/>
    </defs>
    <g transform="translate(75.2881153993 234.555827457)scale(0.1 -0.1)">
     <use xlink:href="#BitstreamVeraSans-Roman-36"/>
    </g>
   </g>
   <g id="text_7">
    <!-- 7 -->
    <defs>
     <path d="
M8.20312 72.9062
L55.0781 72.9062
L55.0781 68.7031
L28.6094 0
L18.3125 0
L43.2188 64.5938
L8.20312 64.5938
z
" id="BitstreamVeraSans-Roman-37"/>
    </defs>
    <g transform="translate(132.585584371 249.862165558)scale(0.1 -0.1)">
     <use xlink:href="#BitstreamVeraSans-Roman-37"/>
    </g>
   </g>
   <g id="text_8">
    <!-- 8 -->
    <defs>
     <path d="
M31.7812 34.625
Q24.75 34.625 20.7188 30.8594
Q16.7031 27.0938 16.7031 20.5156
Q16.7031 13.9219 20.7188 10.1562
Q24.75 6.39062 31.7812 6.39062
Q38.8125 6.39062 42.8594 10.1719
Q46.9219 13.9688 46.9219 20.5156
Q46.9219 27.0938 42.8906 30.8594
Q38.875 34.625 31.7812 34.625
M21.9219 38.8125
Q15.5781 40.375 12.0312 44.7188
Q8.5 49.0781 8.5 55.3281
Q8.5 64.0625 14.7188 69.1406
Q20.9531 74.2188 31.7812 74.2188
Q42.6719 74.2188 48.875 69.1406
Q55.0781 64.0625 55.0781 55.3281
Q55.0781 49.0781 51.5312 44.7188
Q48 40.375 41.7031 38.8125
Q48.8281 37.1562 52.7969 32.3125
Q56.7812 27.4844 56.7812 20.5156
Q56.7812 9.90625 50.3125 4.23438
Q43.8438 -1.42188 31.7812 -1.42188
Q19.7344 -1.42188 13.25 4.23438
Q6.78125 9.90625 6.78125 20.5156
Q6.78125 27.4844 10.7812 32.3125
Q14.7969 37.1562 21.9219 38.8125
M18.3125 54.3906
Q18.3125 48.7344 21.8438 45.5625
Q25.3906 42.3906 31.7812 42.3906
Q38.1406 42.3906 41.7188 45.5625
Q45.3125 48.7344 45.3125 54.3906
Q45.3125 60.0625 41.7188 63.2344
Q38.1406 66.4062 31.7812 66.4062
Q25.3906 66.4062 21.8438 63.2344
Q18.3125 60.0625 18.3125 54.3906" id="BitstreamVeraSans-Roman-38"/>
    </defs>
    <g transform="translate(189.553365843 234.555827457)scale(0.1 -0.1)">
     <use xlink:href="#BitstreamVeraSans-Roman-38"/>
    </g>
   </g>
   <g id="text_9">
    <!-- 9 -->
    <defs>
     <path d="
M10.9844 1.51562
L10.9844 10.5
Q14.7031 8.73438 18.5 7.8125
Q22.3125 6.89062 25.9844 6.89062
Q35.75 6.89062 40.8906 13.4531
Q46.0469 20.0156 46.7812 33.4062
Q43.9531 29.2031 39.5938 26.9531
Q35.25 24.7031 29.9844 24.7031
Q19.0469 24.7031 12.6719 31.3125
Q6.29688 37.9375 6.29688 49.4219
Q6.29688 60.6406 12.9375 67.4219
Q19.5781 74.2188 30.6094 74.2188
Q43.2656 74.2188 49.9219 64.5156
Q56.5938 54.8281 56.5938 36.375
Q56.5938 19.1406 48.4062 8.85938
Q40.2344 -1.42188 26.4219 -1.42188
Q22.7031 -1.42188 18.8906 -0.6875
Q15.0938 0.046875 10.9844 1.51562
M30.6094 32.4219
Q37.25 32.4219 41.125 36.9531
Q45.0156 41.5 45.0156 49.4219
Q45.0156 57.2812 41.125 61.8438
Q37.25 66.4062 30.6094 66.4062
Q23.9688 66.4062 20.0938 61.8438
Q16.2188 57.2812 16.2188 49.4219
Q16.2188 41.5 20.0938 36.9531
Q23.9688 32.4219 30.6094 32.4219" id="BitstreamVeraSans-Roman-39"/>
    </defs>
    <g transform="translate(231.356215464 192.738134086)scale(0.1 -0.1)">
     <use xlink:href="#BitstreamVeraSans-Roman-39"/>
    </g>
   </g>
   <g id="text_10">
    <!-- 10 -->
    <defs>
     <path d="
M31.7812 66.4062
Q24.1719 66.4062 20.3281 58.9062
Q16.5 51.4219 16.5 36.375
Q16.5 21.3906 20.3281 13.8906
Q24.1719 6.39062 31.7812 6.39062
Q39.4531 6.39062 43.2812 13.8906
Q47.125 21.3906 47.125 36.375
Q47.125 51.4219 43.2812 58.9062
Q39.4531 66.4062 31.7812 66.4062
M31.7812 74.2188
Q44.0469 74.2188 50.5156 64.5156
Q56.9844 54.8281 56.9844 36.375
Q56.9844 17.9688 50.5156 8.26562
Q44.0469 -1.42188 31.7812 -1.42188
Q19.5312 -1.42188 13.0625 8.26562
Q6.59375 17.9688 6.59375 36.375
Q6.59375 54.8281 13.0625 64.5156
Q19.5312 74.2188 31.7812 74.2188" id="BitstreamVeraSans-Roman-30"/>
    </defs>
    <g transform="translate(243.696147315 135.614102615)scale(0.1 -0.1)">
     <use xlink:href="#BitstreamVeraSans-Roman-31"/>
     <use x="63.623046875" xlink:href="#BitstreamVeraSans-Roman-30"/>
    </g>
   </g>
   <g id="text_11">
    <!-- 11 -->
    <g transform="translate(228.519496714 78.4900711426)scale(0.1 -0.1)">
     <use xlink:href="#BitstreamVeraSans-Roman-31"/>
     <use x="63.623046875" xlink:href="#BitstreamVeraSans-Roman-31"/>
    </g>
   </g>
   <g id="text_12">
    <!-- 12 -->
    <g transform="translate(186.740865843 36.672377772)scale(0.1 -0.1)">
     <use xlink:href="#BitstreamVeraSans-Roman-31"/>
     <use x="63.623046875" xlink:href="#BitstreamVeraSans-Roman-32"/>
    </g>
   </g>
  </g>
 </g>
 <defs>
  <clipPath id="pb8d949032b">
   <rect height="262.08" width="255.458668743" x="7.2" y="7.2"/>
  </clipPath>
 </defs>
</svg>
